<svg width="210" height="52" viewBox="0 0 210 52" fill="none" xmlns="http://www.w3.org/2000/svg">
<g clip-path="url(#clip0_2_63)">
<path d="M12.3461 29.771C11.9237 29.2955 11.5121 28.8312 11.1001 28.3675C9.57653 26.6525 8.05139 24.9385 6.53247 23.2195C6.42194 23.0943 6.32283 23.0702 6.16455 23.1005C4.62592 23.3949 3.08625 23.6812 1.54658 23.9695C1.08006 24.0567 0.613537 24.1444 0.147017 24.2316C0.108097 24.2388 0.0676203 24.2414 0.0146892 24.247C0.0146892 24.1408 0.0146892 24.0428 0.0146892 23.9151C2.11636 23.5211 4.22478 23.1256 6.33321 22.7306C6.44789 22.193 6.55998 21.6753 6.66895 21.1567C7.02857 19.4494 7.38404 17.7417 7.74989 16.0359C7.7831 15.8805 7.75404 15.7974 7.62794 15.7004C5.22321 13.8475 2.82315 11.9894 0.421532 10.1323C0.314632 10.0497 0.210846 9.9625 0.0997941 9.88504C0.0250679 9.83271 -0.00503015 9.77064 0.000678105 9.68189C0.00638636 9.59109 0.00223479 9.49977 0.00223479 9.36434C0.099794 9.43719 0.163104 9.48284 0.224857 9.53055C2.73908 11.4733 5.25331 13.4165 7.76753 15.3598C7.78881 15.3762 7.8132 15.3906 7.83136 15.4101C7.96473 15.5563 8.12715 15.5604 8.31345 15.5368C9.08095 15.4403 9.85001 15.3572 10.6185 15.269C11.3938 15.1802 12.1691 15.0905 12.9444 15.0022C13.7062 14.9155 14.4685 14.8299 15.2303 14.7432C15.6615 14.6939 16.0922 14.6436 16.5333 14.5929C16.5411 14.5318 16.5515 14.4805 16.5536 14.4287C16.5728 13.8788 16.592 13.3283 16.6091 12.7784C16.6392 11.7985 16.6641 10.8187 16.7009 9.83938C16.7067 9.68497 16.6568 9.60032 16.5297 9.51414C13.8453 7.70016 11.1634 5.88209 8.48314 4.06196C8.3669 3.98296 8.25325 3.94192 8.10847 3.94089C5.47334 3.92037 2.83872 3.89472 0.204099 3.86958C0.144422 3.86907 0.0847451 3.86343 0.0141704 3.85984C0.0141704 3.75211 0.0141704 3.65412 0.0141704 3.52587C2.71936 3.54947 5.42456 3.57204 8.15154 3.59513C8.01195 3.01646 7.87807 2.46447 7.74003 1.89196C7.86406 1.89196 7.97407 1.89196 8.09602 1.89196C8.19306 2.28903 8.2901 2.68609 8.38662 3.08315C8.41983 3.22012 8.45512 3.35658 8.48262 3.49458C8.50494 3.60641 8.56202 3.68234 8.65906 3.74749C9.38972 4.23689 10.1167 4.73143 10.8448 5.22442C12.8162 6.55925 14.7887 7.89305 16.7575 9.23147C16.8821 9.31612 17.0019 9.35305 17.1524 9.34331C18.3854 9.26431 19.6189 9.18992 20.8524 9.11553C21.801 9.05808 22.7501 9.00319 23.6987 8.94676C23.7522 8.94368 23.8051 8.93855 23.8804 8.93291C23.87 8.84621 23.8664 8.76823 23.8498 8.69282C23.7013 8.00899 23.4689 7.3503 23.2265 6.69519C23.0449 6.20374 22.8482 5.71793 22.664 5.22801C22.6209 5.11412 22.5529 5.04077 22.4455 4.98023C20.6988 3.99937 18.9542 3.01492 17.2095 2.03099C17.1457 1.99508 17.0824 1.95763 17.0019 1.91094C17.0979 1.85092 17.1856 1.88375 17.2671 1.87401C17.5484 1.84118 17.7897 1.92685 18.0346 2.0669C19.5629 2.93849 21.0989 3.79674 22.6308 4.66268C22.7527 4.73194 22.8747 4.76323 23.0148 4.7658C24.2711 4.78939 25.5269 4.81761 26.7828 4.8448C26.8487 4.84634 26.9151 4.8448 26.9903 4.82633C26.4102 4.32102 25.8108 3.84598 25.2166 3.36428C24.624 2.88411 24.0298 2.40548 23.404 1.89966C23.487 1.88786 23.5337 1.87555 23.5809 1.87503C23.9411 1.87349 24.3007 1.86939 24.6608 1.8776C24.7589 1.87965 24.8638 1.90581 24.952 1.94891C26.0651 2.49269 27.1849 3.02313 28.2845 3.59205C31.1345 5.06744 33.956 6.59516 36.6985 8.25985C38.0457 9.07757 39.3897 9.90453 40.644 10.8613C41.8141 11.7534 42.9148 12.7178 43.8556 13.8505C44.4181 14.5277 44.9059 15.2521 45.2484 16.0652C45.4031 16.432 45.5147 16.8106 45.5894 17.2009C45.6029 17.2717 45.6252 17.3446 45.6615 17.4067C46.2422 18.3998 46.5982 19.4725 46.8109 20.5945C47.005 21.6164 47.0538 22.647 46.9671 23.6822C46.866 24.8857 46.6008 26.0548 46.1695 27.185C46.0647 27.4594 46.0388 27.7457 45.9822 28.0278C45.7643 29.1164 45.427 30.1712 45.0466 31.2126C44.8483 31.7548 44.6262 32.2888 44.4218 32.829C44.2422 33.3025 44.003 33.7422 43.7254 34.1669C41.0762 38.2202 38.5075 42.3226 35.9668 46.4425C35.6243 46.9976 35.2299 47.5214 34.8553 48.0564C34.0551 49.1989 33.2497 50.3372 32.4537 51.4818C32.3551 51.6239 32.2544 51.6921 32.0754 51.631C32.0696 51.5495 32.1402 51.4977 32.1828 51.4371C33.2876 49.8586 34.4043 48.2883 35.4967 46.7011C35.9393 46.0583 36.3327 45.3822 36.7442 44.7183C37.6165 43.3107 38.4862 41.9015 39.357 40.4927C39.3949 40.4317 39.4291 40.3686 39.4841 40.2737C39.4022 40.304 39.3529 40.3178 39.3067 40.3394C38.7981 40.5784 38.289 40.8165 37.7841 41.0622C37.7032 41.1017 37.6243 41.1663 37.5719 41.2392C35.7644 43.757 33.9601 46.2774 32.1568 48.7977C32.106 48.8685 32.065 48.9465 32.0261 49.0245C31.6285 49.8258 31.2331 50.6276 30.8367 51.4289C30.8014 51.5007 30.7635 51.571 30.7266 51.6433C30.6431 51.6433 30.5699 51.6433 30.4604 51.6433C30.8585 50.8056 31.2736 49.9976 31.6841 49.1435C31.6016 49.1738 31.5533 49.1876 31.5092 49.2086C30.4594 49.7124 29.4112 50.2187 28.3603 50.7205C28.2576 50.7697 28.1844 50.8374 28.1242 50.9308C27.9716 51.1688 27.8128 51.4028 27.6546 51.6408C27.5653 51.6408 27.4797 51.6408 27.3624 51.6408C27.4138 51.5597 27.4517 51.4992 27.4911 51.4392C27.6094 51.2591 27.72 51.0734 27.8502 50.9015C27.981 50.7287 28.0417 50.5414 28.0635 50.3285C28.1585 49.3805 28.2607 48.433 28.3624 47.4855C28.4496 46.6713 28.5404 45.8577 28.6291 45.0441C28.6343 44.9979 28.6353 44.9512 28.6395 44.881C28.571 44.9076 28.517 44.9246 28.4662 44.9487C26.5352 45.8531 24.6043 46.7591 22.6723 47.6609C22.5659 47.7107 22.5026 47.7835 22.4492 47.881C21.7943 49.0794 21.1368 50.2767 20.4803 51.4741C20.3719 51.6716 20.3714 51.6716 20.1186 51.6249C20.1529 51.5567 20.184 51.4915 20.2183 51.4279C20.8804 50.2182 21.5395 49.0065 22.2089 47.801C22.3065 47.625 22.3303 47.4557 22.3096 47.2628C22.2307 46.5272 22.0875 45.8028 21.9095 45.0862C21.609 43.875 21.2852 42.6694 20.9702 41.4613C20.9552 41.4044 20.9318 41.3495 20.9069 41.2797C20.8415 41.3023 20.7849 41.3182 20.731 41.3413C18.4062 42.3447 16.0819 43.3497 13.755 44.349C13.6299 44.4028 13.565 44.4839 13.5106 44.5968C12.4032 46.8765 11.2937 49.1558 10.1847 51.4346C10.1525 51.5007 10.1193 51.5664 10.0835 51.6382C9.99739 51.6382 9.9128 51.6382 9.80642 51.6382C9.84741 51.549 9.87907 51.4761 9.91384 51.4048C11.029 49.1066 12.1437 46.8073 13.2635 44.5111C13.3294 44.3757 13.3289 44.2756 13.2568 44.1412C12.0762 41.9502 10.9024 39.7556 9.7265 37.562C9.69173 37.4973 9.65437 37.4337 9.60663 37.3496C6.41157 38.4454 3.21909 39.5396 0.0105378 40.64C0.0105378 40.5087 0.0105378 40.4096 0.0105378 40.3004C0.172964 40.2429 0.331238 40.1855 0.49055 40.1311C3.45106 39.1174 6.41157 38.1032 9.37415 37.0951C9.53813 37.0392 9.62375 36.9515 9.68343 36.793C10.5443 34.5122 11.4115 32.2334 12.2776 29.9542C12.2988 29.8982 12.3196 29.8423 12.3461 29.771ZM23.4144 20.7335C23.3672 20.6909 23.3381 20.6632 23.3075 20.637C21.1264 18.7692 18.9443 16.9014 16.7648 15.0315C16.6745 14.954 16.5878 14.9273 16.4705 14.9417C15.77 15.0258 15.0684 15.1043 14.3673 15.1838C13.3694 15.2967 12.3715 15.408 11.3736 15.5214C10.342 15.6383 9.31084 15.7579 8.2792 15.8754C8.09602 15.8964 8.09446 15.8938 8.0571 16.0698C7.59577 18.2423 7.13651 20.4149 6.66844 22.5859C6.63263 22.7511 6.66792 22.8558 6.77689 22.9784C8.67618 25.1089 10.5708 27.243 12.4665 29.3765C12.5064 29.4212 12.549 29.4637 12.5952 29.512C12.6642 29.494 12.7296 29.4786 12.7939 29.4607C15.3029 28.7476 17.8115 28.0309 20.3231 27.3276C20.5556 27.2624 20.678 27.1604 20.7663 26.9341C21.5576 24.9134 22.444 22.9317 23.3225 20.9469C23.3531 20.8787 23.3812 20.8109 23.4144 20.7335ZM13.5977 44.0786C13.6642 44.052 13.7083 44.0361 13.7513 44.0176C16.0954 43.007 18.4389 41.9958 20.7839 40.9883C20.8991 40.9391 20.9661 40.8657 21.0216 40.7595C22.212 38.4828 23.405 36.2076 24.597 33.932C24.6935 33.7478 24.7885 33.5626 24.8887 33.3692C23.4813 31.4342 22.075 29.5007 20.6677 27.5661C20.6007 27.582 20.5483 27.5923 20.4964 27.6072C17.9355 28.3367 15.3751 29.0672 12.8131 29.7921C12.673 29.8316 12.5998 29.8967 12.549 30.0301C11.6798 32.3222 10.8069 34.6132 9.92992 36.9023C9.87492 37.0459 9.87907 37.1577 9.95224 37.2947C11.1318 39.4862 12.3061 41.6804 13.482 43.8734C13.5168 43.9381 13.5541 44.0012 13.5977 44.0786ZM22.61 47.35C22.6905 47.3167 22.7465 47.2962 22.8005 47.271C24.7309 46.3676 26.6613 45.4632 28.5928 44.5619C28.6955 44.5142 28.7708 44.4511 28.831 44.3562C30.3696 41.9451 31.9098 39.5345 33.4526 37.1259C33.5195 37.0213 33.5408 36.9243 33.519 36.8048C33.2902 35.5582 33.0743 34.309 32.8335 33.0645C32.724 32.4992 32.5694 31.942 32.4308 31.3824C32.4044 31.2751 32.3545 31.1736 32.3141 31.0648C32.12 31.1371 31.9508 31.2054 31.7785 31.2628C29.639 31.9744 27.4994 32.6854 25.3578 33.3908C25.212 33.439 25.1206 33.5108 25.0495 33.6473C23.7968 36.042 22.5405 38.4351 21.279 40.8252C21.1996 40.9755 21.1965 41.1022 21.2385 41.2612C21.5628 42.4796 21.8887 43.698 22.1907 44.922C22.3853 45.71 22.54 46.5072 22.61 47.35ZM17.0315 9.69061C17.0175 10.0672 17.0024 10.4155 16.9916 10.7638C16.9583 11.837 16.9272 12.9102 16.8945 13.9839C16.8888 14.165 16.8821 14.3461 16.8706 14.5272C16.8655 14.6088 16.8914 14.6657 16.9552 14.718C17.1125 14.8458 17.2645 14.9802 17.4181 15.112C19.4611 16.8603 21.5047 18.6076 23.5451 20.3585C23.6427 20.4421 23.7252 20.4641 23.8534 20.4313C25.9068 19.9024 27.9618 19.3781 30.0173 18.8574C30.1325 18.8282 30.1896 18.7707 30.2181 18.6635C30.3001 18.3593 30.3961 18.0582 30.4687 17.7519C30.6986 16.7849 30.8559 15.8046 31.0001 14.8227C31.0416 14.539 31.0748 14.2538 31.1112 13.9731C31.0281 13.9167 30.9617 13.87 30.8943 13.8259C29.7931 13.1 28.6919 12.3746 27.5907 11.6487C26.4387 10.8895 25.2867 10.1308 24.1347 9.37152C24.0558 9.31971 23.9826 9.26995 23.8757 9.27662C23.1985 9.32125 22.5208 9.35921 21.843 9.39974C20.5353 9.47771 19.2276 9.55569 17.9199 9.63418C17.6309 9.65008 17.3413 9.67009 17.0315 9.69061ZM25.158 33.1219C25.2083 33.1071 25.2405 33.0983 25.2727 33.0881C26.4776 32.6982 27.6847 32.315 28.886 31.9154C29.9654 31.5568 31.0385 31.1787 32.1153 30.8124C32.2533 30.7657 32.3353 30.6857 32.3971 30.5518C33.2507 28.7035 34.1111 26.8582 34.9694 25.0119C35 24.9457 35.0291 24.8785 35.0639 24.8011C33.4355 22.9148 31.8107 21.0326 30.1854 19.1493C30.1122 19.1657 30.0531 19.177 29.9944 19.1919C28.9509 19.4582 27.9068 19.7249 26.8632 19.9917C25.872 20.2451 24.8814 20.5006 23.8897 20.7504C23.7615 20.7827 23.679 20.8381 23.6292 20.9669C23.5368 21.2044 23.4211 21.4327 23.3204 21.6677C22.5441 23.4837 21.7709 25.3002 20.9915 27.1147C20.9302 27.2568 20.952 27.3558 21.0418 27.4789C22.3734 29.3011 23.6998 31.1269 25.0277 32.9511C25.0661 33.005 25.1082 33.0573 25.158 33.1219ZM28.3276 50.4029C28.4169 50.3639 28.4849 50.3372 28.5502 50.306C29.6058 49.7991 30.6602 49.2907 31.7173 48.787C31.8621 48.7182 31.9736 48.629 32.0676 48.4966C33.7375 46.1547 35.4059 43.8114 37.0913 41.4808C37.398 41.0565 37.6191 40.6133 37.7333 40.1085C38.055 38.689 38.383 37.2706 38.7068 35.8516C38.7493 35.6649 38.7825 35.4761 38.8256 35.2632C38.7384 35.2914 38.6814 35.3078 38.6253 35.3284C37.0555 35.9055 35.4863 36.4836 33.9155 37.0577C33.8055 37.0977 33.7354 37.1623 33.6752 37.2567C33.1874 38.0237 32.6965 38.7886 32.2066 39.5534C31.1579 41.192 30.1081 42.83 29.0614 44.47C29.0048 44.5583 28.9498 44.6604 28.9379 44.7609C28.8481 45.5207 28.7692 46.2815 28.6867 47.0417C28.5938 47.8954 28.5004 48.749 28.4081 49.6031C28.3806 49.8607 28.3562 50.1192 28.3276 50.4029ZM35.3327 24.5369C35.3752 24.5266 35.4017 24.5225 35.4266 24.5143C37.3446 23.8854 39.262 23.2554 41.1805 22.6295C41.2937 22.5926 41.3398 22.5372 41.358 22.4207C41.4851 21.6122 41.6206 20.8053 41.7524 19.9973C41.8629 19.3222 41.9714 18.6466 42.0835 17.9715C42.1032 17.8525 42.0918 17.7622 41.9895 17.6698C40.3985 16.237 38.8111 14.7996 37.2263 13.3601C37.1334 13.2755 37.04 13.2354 36.917 13.2457C36.6331 13.2698 36.3477 13.2806 36.0654 13.3155C35.4126 13.3965 34.7598 13.4807 34.109 13.5776C33.257 13.7048 32.4075 13.8464 31.5564 13.9778C31.4552 13.9932 31.4256 14.0398 31.4116 14.1337C31.3068 14.8437 31.2051 15.5547 31.0852 16.2622C30.9456 17.0824 30.7842 17.8991 30.5149 18.6892C30.4646 18.8359 30.4853 18.9298 30.5865 19.0462C31.737 20.3698 32.8812 21.6984 34.0276 23.0261C34.4588 23.5263 34.8911 24.0264 35.3327 24.5369ZM23.0205 5.11823C23.0496 5.19928 23.0714 5.26136 23.0947 5.3224C23.3059 5.88876 23.5249 6.45254 23.7257 7.02198C23.9312 7.60423 24.1326 8.19008 24.213 8.80568C24.2312 8.94522 24.2898 9.02832 24.4081 9.10579C26.6027 10.5453 28.7941 11.9894 30.9861 13.4319C31.367 13.6828 31.3665 13.6782 31.8081 13.6058C33.4682 13.335 35.1262 13.0487 36.8054 12.9117C36.8552 12.9076 36.9035 12.8923 36.9673 12.8789C36.891 12.6578 36.8246 12.4541 36.7499 12.2531C36.5283 11.6534 36.272 11.0696 35.9175 10.5319C35.6767 10.1667 35.3732 9.87478 34.9871 9.6506C32.6529 8.29422 30.3245 6.92758 27.9955 5.56249C27.8559 5.48092 27.7236 5.38653 27.5949 5.28854C27.5212 5.23211 27.4475 5.20493 27.3541 5.20339C25.9758 5.17671 24.5981 5.14696 23.2198 5.11823C23.1601 5.11669 23.1004 5.11823 23.0205 5.11823ZM41.3341 22.9132C41.2776 22.9281 41.2319 22.9373 41.1878 22.9522C39.2895 23.575 37.3918 24.1983 35.493 24.819C35.3882 24.8534 35.3249 24.9088 35.2787 25.0093C34.8963 25.8394 34.5081 26.6663 34.1215 27.4948C33.6327 28.5424 33.1464 29.5904 32.6529 30.6359C32.5995 30.7498 32.601 30.8422 32.6415 30.9581C32.7313 31.2177 32.8122 31.4814 32.8771 31.7481C33.232 33.2025 33.4853 34.6769 33.7354 36.1512C33.7686 36.3467 33.8013 36.5421 33.8366 36.7509C33.903 36.7304 33.9482 36.7191 33.9912 36.7032C35.5994 36.1133 37.2066 35.5218 38.8158 34.9344C38.9206 34.8964 38.9818 34.8328 39.0347 34.742C40.2864 32.5982 41.5391 30.4554 42.7949 28.3141C42.8582 28.2059 42.8686 28.1135 42.8328 27.9935C42.3507 26.3585 41.8743 24.7226 41.3959 23.0866C41.3793 23.0302 41.3564 22.9758 41.3341 22.9132ZM45.7414 27.6713C45.6657 27.6872 45.6397 27.6918 45.6138 27.6985C44.8852 27.8852 44.1571 28.073 43.428 28.2577C43.3258 28.2833 43.2205 28.2951 43.1089 28.3151C43.1032 28.3233 43.0902 28.3392 43.0798 28.3567C41.7939 30.5508 40.5085 32.7449 39.2247 34.94C39.1884 35.0021 39.1629 35.0739 39.1474 35.1447C39.0519 35.5838 38.9637 36.0245 38.8676 36.4636C38.5656 37.8462 38.274 39.2313 37.876 40.5912C37.8682 40.6179 37.8708 40.6482 37.8671 40.6933C37.9543 40.6543 38.0223 40.6251 38.0893 40.5938C38.5973 40.3548 39.1043 40.1126 39.6144 39.8777C39.7426 39.8187 39.8344 39.7376 39.9107 39.6181C40.9994 37.9175 42.0804 36.2118 43.1909 34.525C43.6828 33.7781 44.0985 33.0019 44.3953 32.1621C44.4332 32.0544 44.4778 31.9492 44.5178 31.8425C44.949 30.6985 45.3491 29.5443 45.6132 28.349C45.6605 28.1335 45.6952 27.917 45.7414 27.6713ZM43.1961 27.993C44.0373 27.7765 44.8494 27.5641 45.6641 27.3604C45.785 27.3302 45.8437 27.2742 45.8847 27.1609C46.5779 25.2556 46.8556 23.3036 46.5764 21.286C46.4243 20.1887 46.1223 19.136 45.6304 18.1387C45.5416 17.9587 45.4394 17.7853 45.3393 17.6001C44.3585 17.6796 43.3876 17.7493 42.4213 17.8448C42.3902 18.0228 42.3621 18.1741 42.3372 18.3265C42.1136 19.6895 41.8925 21.0526 41.6647 22.4151C41.6408 22.5587 41.645 22.6906 41.686 22.8296C42.1022 24.2455 42.5152 25.6619 42.9288 27.0783C43.017 27.3804 43.1053 27.6821 43.1961 27.993ZM35.8272 9.79372C36.1505 10.1621 36.3851 10.5371 36.5854 10.9331C36.8869 11.5287 37.1209 12.1505 37.3109 12.7886C37.3493 12.9169 37.4105 13.0154 37.5096 13.1046C39.0898 14.5298 40.6678 15.9564 42.2433 17.3861C42.3367 17.4708 42.4254 17.5026 42.5515 17.4918C43.2952 17.4267 44.0393 17.3697 44.7835 17.3087C44.9298 17.2969 45.0751 17.2805 45.2199 17.2661C45.223 17.2287 45.2282 17.2081 45.2251 17.1892C45.2189 17.1496 45.209 17.1107 45.1991 17.0712C45.0445 16.4314 44.7653 15.8451 44.4197 15.2869C43.9278 14.4923 43.3248 13.7854 42.6636 13.1257C41.4109 11.8755 40.0088 10.8095 38.5194 9.85067C38.4333 9.79526 38.3472 9.78346 38.2506 9.78346C37.5106 9.78449 36.7706 9.78398 36.0306 9.78449C35.9782 9.78449 35.9253 9.78911 35.8272 9.79372ZM37.7556 9.43308C37.7592 9.41974 37.7628 9.40589 37.7665 9.39256C37.7068 9.35049 37.6487 9.30586 37.5869 9.26687C37.1811 9.01037 36.78 8.74669 36.368 8.49993C33.4827 6.7742 30.5336 5.16132 27.5404 3.62693C26.5238 3.10572 25.4844 2.62761 24.4548 2.13102C24.3946 2.10229 24.3308 2.08126 24.2685 2.05664C24.2805 2.10896 24.3038 2.13307 24.3298 2.15411C25.5254 3.12522 26.721 4.09633 27.9171 5.06642C27.9696 5.10848 28.0261 5.14644 28.0842 5.1803C30.4667 6.57259 32.8491 7.96436 35.2305 9.35767C35.3218 9.41102 35.4126 9.43462 35.5179 9.43411C36.122 9.43103 36.726 9.43257 37.3301 9.43257C37.4722 9.43308 37.6139 9.43308 37.7556 9.43308Z" fill="#111111"/>
<path d="M37.7556 9.43309C37.6139 9.43309 37.4722 9.43309 37.3306 9.43309C36.7265 9.43309 36.1225 9.43156 35.5185 9.43463C35.4131 9.43515 35.3223 9.41155 35.231 9.3582C32.8496 7.96437 30.4666 6.57311 28.0848 5.18082C28.0266 5.14697 27.9695 5.109 27.9177 5.06694C26.7215 4.09685 25.5259 3.12574 24.3303 2.15463C24.3043 2.1336 24.281 2.10949 24.269 2.05716C24.3313 2.08178 24.3951 2.1023 24.4553 2.13154C25.4849 2.62813 26.5243 3.10625 27.5409 3.62746C30.5341 5.16184 33.4832 6.77472 36.3685 8.50046C36.7805 8.7467 37.1816 9.01038 37.5874 9.2674C37.6492 9.30638 37.7073 9.35101 37.767 9.39308C37.7628 9.40591 37.7592 9.41924 37.7556 9.43309Z" fill="#111111"/>
<path d="M22.2447 20.2831C22.4487 20.4575 22.6215 20.6052 22.7953 20.754C22.7605 21.0362 22.7097 21.3014 22.5919 21.5558C22.3833 22.0063 22.1908 22.4638 21.9904 22.9184C21.9645 22.9774 21.9344 23.0343 21.8861 23.0871C21.8669 22.1478 22.0076 21.2311 22.2447 20.2831Z" fill="#111111"/>
<path d="M32.4074 33.0517C32.5532 33.814 32.6991 34.5768 32.8444 35.3376C32.5719 35.43 30.7972 35.055 29.8574 34.6974C28.8984 34.3332 27.9908 33.8786 27.1133 33.2738C27.3126 33.2081 27.4843 33.1692 27.6395 33.0963C27.8554 32.9953 28.0219 33.0353 28.2129 33.1717C28.6426 33.4785 29.1158 33.714 29.6042 33.9181C29.6727 33.9469 29.7432 33.9782 29.8154 33.9879C29.86 33.9941 29.9275 33.9771 29.9544 33.9453C30.1739 33.6852 30.4427 33.4816 30.7121 33.2784C30.738 33.2589 30.7577 33.2317 30.7889 33.1999C30.6026 32.8855 30.4184 32.5751 30.2253 32.2493C30.4407 32.176 30.6368 32.1088 30.8527 32.0349C30.8968 32.1057 30.9383 32.1719 30.9798 32.2386C31.0572 32.3648 31.1433 32.4864 31.2097 32.6182C31.314 32.8254 31.4874 32.9209 31.7079 32.9522C31.9295 32.9845 32.1506 33.0153 32.4074 33.0517Z" fill="#111111"/>
<path d="M22.6464 19.0206C23.7657 16.2191 25.6556 14.0978 28.323 12.6357C28.5508 12.7855 28.7687 12.9297 29.0079 13.0872C28.9426 13.1251 28.9 13.1528 28.8549 13.1759C28.5897 13.3109 28.325 13.4473 28.0578 13.5781C27.599 13.8028 27.1896 14.1014 26.7848 14.4066C26.6831 14.4836 26.5887 14.5728 26.5025 14.6667C26.4465 14.7283 26.4123 14.8088 26.3489 14.9119C26.4377 14.9176 26.4885 14.9294 26.5368 14.9227C26.9727 14.8596 27.4086 14.7955 27.844 14.7267C28.3333 14.6498 28.8222 14.5692 29.3203 14.5826C29.5274 14.5882 29.7007 14.5256 29.8569 14.3861C30.0173 14.243 30.1968 14.1214 30.3598 13.9962C30.3836 14.0044 30.3909 14.006 30.3966 14.0096C30.7064 14.1989 30.668 14.1265 30.6208 14.462C30.5398 15.0397 30.4433 15.6153 30.3525 16.1914C30.3411 16.2621 30.3234 16.3319 30.3016 16.4371C30.2482 16.3535 30.2124 16.2991 30.1776 16.2437C29.9976 15.9595 29.8144 15.6773 29.64 15.3895C29.5684 15.2721 29.4734 15.2305 29.3385 15.2274C28.7464 15.2131 28.1585 15.2495 27.5767 15.3629C27.2711 15.4224 26.9654 15.4855 26.6624 15.5563C26.5882 15.5737 26.5031 15.6127 26.4564 15.6691C25.8144 16.4422 25.1736 17.2168 24.6868 18.0992C24.4891 18.4578 24.3075 18.8261 24.13 19.1955C24.0226 19.4192 23.924 19.6474 23.8985 19.8998C23.8882 20.0035 23.8316 20.0245 23.746 19.9681C23.7065 19.9424 23.6728 19.9081 23.637 19.8773C23.3547 19.6356 23.0724 19.3945 22.7906 19.1524C22.7444 19.1124 22.7009 19.0703 22.6464 19.0206Z" fill="#111111"/>
<path d="M24.9821 22.4751C26.3541 22.1509 27.7091 21.8482 29.1092 21.7482C29.2503 21.3906 29.38 21.0315 29.5331 20.6827C29.6841 20.339 29.859 20.0055 30.0417 19.63C30.215 19.8306 30.3619 20.0009 30.5051 20.1666C30.3328 20.5498 30.1636 20.9151 30.0043 21.2844C29.927 21.463 29.8658 21.6482 29.8004 21.8313C29.7552 21.9585 29.7703 22.0698 29.8517 22.1894C30.6883 23.4201 31.5196 24.6543 32.3473 25.8907C32.4142 25.9907 32.4921 26.0394 32.6078 26.0482C32.9866 26.0774 33.3654 26.1092 33.7443 26.1395C33.8102 26.1446 33.8755 26.1472 33.9695 26.1528C33.8709 26.3657 33.7816 26.5586 33.6856 26.7653C33.4106 26.7541 33.1402 26.7423 32.8704 26.731C32.7147 26.7243 32.5377 26.6709 32.4085 26.7258C32.2809 26.7802 32.1963 26.9413 32.1008 27.0613C31.407 27.9304 30.7147 28.8009 30.023 29.6715C29.7755 29.9829 29.776 29.9839 29.9483 30.3379C30.051 30.5492 30.1564 30.7596 30.2601 30.9709C30.2627 30.9766 30.2617 30.9843 30.2653 31.012C30.0676 31.0797 29.8658 31.1489 29.6494 31.2228C29.6141 31.1592 29.5798 31.1038 29.5508 31.0458C29.4236 30.7934 29.2929 30.5431 29.1745 30.2871C29.1097 30.1465 29.0152 30.0788 28.8601 30.045C28.4766 29.9613 28.091 29.8772 27.7195 29.7536C26.829 29.4565 26.0168 29.0205 25.337 28.3654C25.2893 28.3192 25.2338 28.2807 25.1611 28.2223C24.7621 28.4321 24.363 28.6419 23.9691 28.8492C24.0454 29.1539 24.5633 29.9234 25.171 30.6544C25.6333 31.211 26.1549 31.7076 26.7791 32.1606C26.514 32.2457 26.2893 32.3268 26.0584 32.3842C26.007 32.3971 25.9234 32.3386 25.8731 32.2934C25.3059 31.7897 24.7942 31.2346 24.335 30.6329C23.2177 29.1688 22.472 27.5384 22.1015 25.7414C22.0859 25.667 22.0875 25.5777 22.1145 25.509C22.2328 25.2094 22.3636 24.9144 22.4907 24.6179C22.5 24.5964 22.5187 24.5789 22.5509 24.5358C22.6012 24.8324 22.6417 25.1012 22.6926 25.3679C22.843 26.1533 23.0402 26.9264 23.348 27.6677C23.43 27.8652 23.5078 28.0668 23.6645 28.2433C24.0319 28.0566 24.3978 27.8709 24.7797 27.6769C24.7413 27.4964 24.7102 27.3261 24.6676 27.1583C24.5332 26.6314 24.4004 26.1051 24.348 25.5618C24.3007 25.0724 24.3023 24.583 24.3433 24.0941C24.3703 23.7735 24.4081 23.4534 24.4533 23.1343C24.4725 22.9989 24.4408 22.8845 24.3796 22.7685C24.2135 22.4541 24.049 22.1386 23.8892 21.8205C23.8539 21.7508 23.8067 21.661 23.8249 21.5969C23.8664 21.4501 23.9266 21.3003 24.0153 21.1777C24.0599 21.1167 24.185 21.1131 24.294 21.0767C24.527 21.5512 24.7538 22.0114 24.9821 22.4751Z" fill="#111111"/>
<path d="M31.8169 14.3599C32.3758 14.2707 32.9103 14.1804 33.4464 14.1014C34.2518 13.9834 35.0577 13.8711 35.8641 13.7623C36.1666 13.7218 36.4712 13.6987 36.7748 13.6659C36.8667 13.6561 36.9414 13.671 37.0151 13.7382C37.5179 14.1994 38.0249 14.6554 38.5304 15.1135C38.5501 15.1315 38.5656 15.153 38.5895 15.1797C38.5532 15.2377 38.5184 15.2941 38.4826 15.35C38.081 15.9738 37.7291 16.6248 37.4437 17.3082C37.1676 17.9705 37.2195 17.8827 37.5081 18.3891C37.7981 18.8974 38.1111 19.3925 38.412 19.8947C38.7509 20.4611 39.0701 21.0377 39.3119 21.6517C39.3498 21.7472 39.4063 21.7872 39.5023 21.8031C39.9502 21.8775 40.3975 21.956 40.8448 22.0329C40.8842 22.0396 40.9237 22.0462 40.9797 22.056C40.9673 22.1268 40.9569 22.1899 40.9444 22.2602C40.0202 22.5634 39.1038 22.864 38.1484 23.1774C38.1925 23.081 38.2216 23.023 38.246 22.9635C38.3617 22.6778 38.4805 22.393 38.59 22.1047C38.6528 21.9401 38.6336 21.7795 38.5506 21.6194C38.2382 21.0167 37.9455 20.4031 37.6191 19.808C37.3514 19.3202 37.0452 18.8528 36.7577 18.3752C36.7022 18.2829 36.6352 18.2275 36.5174 18.2218C35.67 18.1808 34.8236 18.1141 33.9762 18.0946C33.2227 18.0772 32.4708 18.1428 31.7225 18.2393C31.6135 18.2531 31.5564 18.2977 31.5045 18.3865C31.3873 18.5886 31.2591 18.7851 31.1205 19.0067C31.0489 18.9257 30.9934 18.8631 30.9358 18.7974C31.3758 17.3492 31.5948 15.8636 31.8169 14.3599Z" fill="#111111"/>
<path d="M32.0126 13.0841C32.6068 12.863 33.201 12.6419 33.8024 12.4177C33.8024 12.2397 33.8024 12.055 33.8024 11.8493C33.5808 11.8493 33.3727 11.8375 33.1667 11.8514C32.6109 11.8888 32.0593 11.9606 31.5248 12.1202C31.1813 12.2228 30.8424 12.3397 30.5056 12.4624C30.3972 12.5019 30.3183 12.4962 30.2254 12.4295C30.0464 12.3013 29.859 12.1843 29.6478 12.0443C29.7267 12.0099 29.7729 11.9873 29.8206 11.9699C31.4459 11.3779 33.1221 11.1198 34.8532 11.2317C35.1573 11.2512 35.4604 11.2912 35.7645 11.3143C35.8584 11.3214 35.9119 11.3579 35.9482 11.442C36.0162 11.601 36.0909 11.757 36.1786 11.9494C35.5678 11.8683 34.9928 11.7985 34.3914 11.8426C34.3914 12.0402 34.3914 12.2248 34.3914 12.4295C34.5881 12.4998 34.8003 12.5752 35.0131 12.6506C35.0105 12.6604 35.0079 12.6701 35.0058 12.6794C34.011 12.8312 33.0167 12.9836 32.0219 13.1354C32.0188 13.1185 32.0157 13.101 32.0126 13.0841Z" fill="#111111"/>
<path d="M33.6113 33.0666C33.8288 33.0563 34.0239 33.0465 34.2195 33.0383C34.8848 33.0111 35.5469 32.9537 36.2024 32.8326C36.2625 32.8213 36.3212 32.8049 36.3814 32.7957C36.7498 32.7377 37.0134 32.5571 37.2272 32.2396C37.6782 31.5691 38.1426 30.9084 38.5121 30.1881C38.5427 30.1281 38.5749 30.0691 38.6055 30.0096C38.6714 29.8798 38.6678 29.7515 38.5941 29.6253C38.5635 29.573 38.5365 29.5181 38.5012 29.4694C37.8884 28.6158 37.2724 27.7642 36.6621 26.909C36.5708 26.7807 36.4686 26.73 36.3061 26.7418C35.9206 26.7695 35.5329 26.7772 35.1463 26.792C35.0815 26.7946 35.0161 26.7925 34.918 26.7925C35.0192 26.5766 35.1012 26.3868 35.1987 26.2046C35.2205 26.1641 35.2937 26.1344 35.3461 26.1297C35.549 26.1118 35.7524 26.0985 35.9564 26.0979C36.1826 26.0974 36.3362 25.9948 36.4634 25.8163C36.7213 25.4546 36.9885 25.0996 37.2563 24.7452C37.29 24.7005 37.345 24.6605 37.3985 24.6426C38.6066 24.2419 39.8162 23.8448 41.0419 23.4416C41.0658 23.5016 41.0912 23.5535 41.1073 23.6078C41.5297 25.0509 41.9495 26.4945 42.3766 27.936C42.4155 28.0663 42.4005 28.1669 42.3289 28.2736C42.2692 28.3628 42.2106 28.4552 42.1664 28.5527C42.0673 28.7722 41.8987 28.9123 41.6869 29.0215C41.0113 29.3709 40.3185 29.6746 39.5666 29.8228C39.4177 29.8521 39.3507 29.9413 39.2967 30.0645C39.0653 30.5949 38.8043 31.112 38.4867 31.5968C38.2143 32.0128 37.9159 32.412 37.6294 32.8193C37.5682 32.9065 37.5095 32.9952 37.439 33.0994C37.7213 33.3774 37.9953 33.6468 38.2682 33.9166C38.345 33.9925 38.4301 33.9715 38.5137 33.9381C38.715 33.8586 38.9143 33.7755 39.1405 33.6827C39.1177 33.737 39.1053 33.7765 39.085 33.8119C38.9677 34.0161 38.8458 34.2177 38.7306 34.4234C38.6854 34.5035 38.6284 34.5558 38.5396 34.5902C37.7041 34.9134 36.8583 35.197 35.9626 35.3125C35.3363 35.3935 34.7094 35.4551 34.0535 35.4469C33.9076 34.661 33.7623 33.8791 33.6113 33.0666Z" fill="#111111"/>
<path d="M40.4706 33.6524C40.5495 33.5159 40.6294 33.3867 40.6999 33.2528C40.9553 32.7685 41.2739 32.3514 41.7181 32.001C42.7087 31.2187 43.4425 30.2061 44.141 29.1713C44.2344 29.0328 44.3045 28.8784 44.3813 28.7291C44.402 28.6886 44.4093 28.6414 44.4238 28.5916C44.3807 28.5578 44.3418 28.5275 44.277 28.4767C44.5893 28.3957 44.8753 28.3213 45.1898 28.2397C45.1534 28.4824 45.1119 28.7004 45.0045 28.9041C44.4326 29.9885 43.7134 30.9668 42.8447 31.8374C42.1846 32.4992 41.4576 33.0794 40.6626 33.5754C40.6169 33.6042 40.5707 33.6329 40.5235 33.6591C40.5157 33.6637 40.5007 33.6565 40.4706 33.6524Z" fill="#111111"/>
<path d="M43.5028 18.1705C44.0633 18.1249 44.5765 18.0828 45.098 18.0402C45.1437 18.1249 45.1878 18.1998 45.2262 18.2772C45.7254 19.2796 46.029 20.339 46.1691 21.4455C46.401 23.2769 46.1686 25.0565 45.565 26.7961C45.5168 26.9357 45.4493 27.0147 45.2791 27.0049C45.2843 26.9736 45.2853 26.9428 45.2952 26.9151C45.5007 26.3498 45.6081 25.7629 45.6647 25.1674C45.7244 24.5333 45.784 23.8982 45.8115 23.2621C45.8453 22.4885 45.7731 21.7205 45.5951 20.9648C45.5858 20.9259 45.5723 20.8874 45.5645 20.8484C45.523 20.6324 45.3886 20.5257 45.1701 20.5134C45.0279 20.5052 44.8863 20.4924 44.7306 20.4806C44.7 20.5242 44.6621 20.5709 44.632 20.6216C44.5298 20.7956 44.4244 20.9679 44.331 21.147C44.0767 21.6338 43.7695 22.0816 43.3518 22.4469C43.2423 22.5423 43.2127 22.6331 43.2568 22.7788C43.5288 23.6786 43.6377 24.6056 43.6424 25.5398C43.645 26.0405 43.5744 26.5422 43.536 27.0429C43.5308 27.1096 43.5106 27.1763 43.5142 27.2424C43.5179 27.3076 43.5433 27.3712 43.564 27.4564C43.5448 27.4784 43.5054 27.4933 43.4769 27.4307C43.4545 27.3825 43.4437 27.3291 43.4286 27.2773C42.9974 25.803 42.5698 24.3271 42.1323 22.8542C42.068 22.6372 42.0742 22.4346 42.1442 22.2058C42.2402 22.2181 42.3388 22.2273 42.4354 22.2443C42.548 22.2643 42.6326 22.2273 42.7031 22.1417C43.0067 21.7718 43.3186 21.4081 43.6128 21.0315C43.7861 20.8094 43.9397 20.5709 44.0892 20.3318C44.2252 20.1148 44.2423 19.8906 44.139 19.6423C43.9392 19.1606 43.8085 18.6507 43.5028 18.1705Z" fill="#111111"/>
<path d="M37.3658 11.6287C40.4338 12.5183 42.7876 14.2645 44.5219 16.9003C44.3418 16.9183 44.2033 16.9332 44.0647 16.945C43.7067 16.9757 43.3481 17.0014 42.9905 17.0378C42.8733 17.0496 42.81 17.0086 42.743 16.9157C42.4955 16.572 42.2365 16.236 41.9802 15.8984C41.9356 15.84 41.8785 15.7907 41.8307 15.7338C41.483 15.3167 41.0103 15.1628 40.4893 15.1064C40.4249 15.0992 40.3466 15.0915 40.302 15.053C40.0622 14.8478 39.8308 14.6323 39.6035 14.4005C40.1328 14.3774 40.647 14.479 41.1556 14.5456C41.1738 14.5241 41.1857 14.5154 41.1899 14.5041C41.2703 14.2933 41.2288 14.144 41.0321 13.9916C40.1458 13.3057 39.1593 12.8132 38.1022 12.448C37.9808 12.4059 37.8593 12.3608 37.7348 12.3305C37.6289 12.3049 37.5781 12.2469 37.5485 12.1458C37.5013 11.9858 37.4385 11.8308 37.3658 11.6287Z" fill="#111111"/>
<path d="M66.5932 11.9453H73.175C75.1239 11.9453 76.8153 13.5447 76.8153 15.5078V19.3973H72.4027V16.9255H65.8575L67.3651 18.0524V19.3973L76.8151 26.1949V32.2654C76.8151 34.301 75.1236 35.864 73.1749 35.864H66.593C64.5706 35.864 62.9894 34.3009 62.9894 32.2654V28.3758H67.3651V30.884H72.3659V28.3758L62.9525 21.6147V15.5078C62.9525 13.5085 64.5337 11.9453 66.5927 11.9453H66.5932ZM80.8808 16.7438L82.3516 17.8707V30.7752H87.3894V16.7439H80.8809L80.8808 16.7438ZM91.8383 15.3261V32.1563C91.8383 34.1556 90.1469 35.7914 88.1981 35.7914H82.3515V49.7865H77.9389V12.8187L77.0196 11.7281H88.198C90.1469 11.7281 91.8383 13.2912 91.8383 15.3268L91.8383 15.3261ZM96.0876 16.8529L97.5952 17.9434V30.7753H102.596V16.8531H96.0877L96.0876 16.8529ZM107.009 15.4352V32.1928C107.009 34.1194 105.317 35.7914 103.368 35.7914H96.8231C94.7639 35.7914 93.1829 34.1193 93.1829 32.1928V15.4352C93.1829 13.3995 94.764 11.8365 96.8231 11.8365H103.368C105.428 11.8365 107.009 13.5087 107.009 15.4352ZM108.389 35.9368V13.1449L107.47 12.018H116.295C118.318 12.018 119.899 13.5811 119.899 15.6166V16.9979H111.295L112.802 18.1248V35.9366H108.39L108.389 35.9368ZM123.008 16.9619L124.516 18.0524V30.775H131.612V35.7187H123.743C121.721 35.7187 120.14 34.1556 120.14 32.1562V3.11166H124.515V11.9811H129.479V16.9248L123.008 16.9619ZM135.457 11.9453H142.039C143.988 11.9453 145.679 13.5447 145.679 15.5078V19.3973H141.267V16.9255H134.721L136.229 18.0524V19.3973L145.679 26.1949V32.2654C145.679 34.301 143.987 35.864 142.039 35.864H135.457C133.434 35.864 131.853 34.3009 131.853 32.2654V28.3758H136.229V30.884H141.23V28.3758L131.816 21.6147V15.5078C131.816 13.5085 133.397 11.9453 135.457 11.9453H135.457ZM154.819 12.0182H159.379L161.401 28.4487L163.46 12.0182H167.909L164.931 35.9369H157.908L157.099 26.2313L156.29 35.9369H149.266L146.435 13.1088L145.516 12.0183H150.737L152.76 28.4488L154.819 12.0182ZM171.57 16.889L173.078 18.0159V21.869H178.079V16.8889H171.57L171.57 16.889ZM172.306 11.9091H178.851C180.873 11.9091 182.454 13.4722 182.454 15.5078V23.2869C182.454 25.3225 180.873 26.8855 178.851 26.8855H173.078V30.8477H182.454V32.2653C182.454 34.2646 180.873 35.8278 178.851 35.8278H172.306C170.246 35.8278 168.665 34.2647 168.665 32.2653V15.5077C168.665 13.4721 170.246 11.9091 172.306 11.9091V11.9091ZM186.225 24.3772L187.696 25.5041V30.8113H192.734V24.3773H186.225L186.225 24.3772ZM197.109 15.4713V35.7914V35.8277L186.961 35.7914C184.902 35.7914 183.321 34.2283 183.321 32.2289V22.9595C183.321 20.9602 184.902 19.3971 186.961 19.3971H192.734V16.8889L183.32 16.8525V15.4712C183.32 13.4356 184.901 11.8726 186.96 11.8726H193.506C195.528 11.8726 197.109 13.4357 197.109 15.4712V15.4713ZM198.491 35.9368V13.1449L197.571 12.018H206.396C208.419 12.018 210 13.5811 210 15.6166V16.9979H201.396L202.903 18.1248V35.9366H198.491L198.491 35.9368Z" fill="#FF770B"/>
</g>
<defs>
<clipPath id="clip0_2_63">
<rect width="210" height="51.6534" fill="white"/>
</clipPath>
</defs>
</svg>
