<svg width="48" height="51" viewBox="0 0 48 51" fill="none" xmlns="http://www.w3.org/2000/svg">
<path d="M12.3461 28.771C11.9237 28.2955 11.5121 27.8312 11.1001 27.3675C9.57653 25.6525 8.05139 23.9385 6.53248 22.2195C6.42194 22.0943 6.32283 22.0702 6.16455 22.1005C4.62592 22.3949 3.08625 22.6812 1.54658 22.9695C1.08006 23.0567 0.613537 23.1444 0.147017 23.2316C0.108097 23.2388 0.0676203 23.2414 0.0146892 23.247C0.0146892 23.1408 0.0146892 23.0428 0.0146892 22.9151C2.11636 22.5211 4.22478 22.1256 6.33321 21.7306C6.44789 21.193 6.55998 20.6753 6.66895 20.1567C7.02857 18.4494 7.38404 16.7417 7.74989 15.0359C7.7831 14.8805 7.75404 14.7974 7.62794 14.7004C5.22321 12.8475 2.82315 10.9894 0.421532 9.1323C0.314632 9.04971 0.210846 8.9625 0.0997941 8.88504C0.0250679 8.83271 -0.00503015 8.77064 0.000678105 8.68189C0.00638636 8.59109 0.00223479 8.49977 0.00223479 8.36434C0.099794 8.43719 0.163104 8.48284 0.224857 8.53055C2.73908 10.4733 5.25331 12.4165 7.76753 14.3598C7.78881 14.3762 7.8132 14.3906 7.83136 14.4101C7.96473 14.5563 8.12715 14.5604 8.31345 14.5368C9.08095 14.4403 9.85001 14.3572 10.6185 14.269C11.3938 14.1802 12.1691 14.0905 12.9444 14.0022C13.7062 13.9155 14.4685 13.8299 15.2303 13.7432C15.6615 13.6939 16.0922 13.6436 16.5333 13.5929C16.5411 13.5318 16.5515 13.4805 16.5536 13.4287C16.5728 12.8788 16.592 12.3283 16.6091 11.7784C16.6392 10.7985 16.6641 9.8187 16.7009 8.83938C16.7067 8.68497 16.6568 8.60032 16.5297 8.51414C13.8453 6.70016 11.1634 4.88209 8.48314 3.06196C8.3669 2.98296 8.25325 2.94192 8.10847 2.94089C5.47334 2.92037 2.83872 2.89472 0.204099 2.86958C0.144422 2.86907 0.0847451 2.86343 0.0141704 2.85984C0.0141704 2.75211 0.0141704 2.65412 0.0141704 2.52587C2.71936 2.54947 5.42456 2.57204 8.15154 2.59513C8.01195 2.01646 7.87807 1.46447 7.74003 0.891963C7.86406 0.891963 7.97407 0.891963 8.09602 0.891963C8.19306 1.28903 8.2901 1.68609 8.38662 2.08315C8.41983 2.22012 8.45512 2.35658 8.48262 2.49458C8.50494 2.60641 8.56202 2.68234 8.65906 2.74749C9.38972 3.23689 10.1167 3.73143 10.8448 4.22442C12.8162 5.55925 14.7887 6.89305 16.7575 8.23147C16.8821 8.31612 17.0019 8.35305 17.1524 8.34331C18.3854 8.2643 19.6189 8.18992 20.8524 8.11553C21.801 8.05808 22.7501 8.00319 23.6987 7.94676C23.7522 7.94368 23.8051 7.93855 23.8804 7.93291C23.87 7.84621 23.8664 7.76823 23.8498 7.69282C23.7013 7.00899 23.4689 6.3503 23.2265 5.69519C23.0449 5.20374 22.8482 4.71793 22.664 4.22801C22.6209 4.11412 22.5529 4.04077 22.4455 3.98023C20.6988 2.99937 18.9542 2.01492 17.2095 1.03099C17.1457 0.995076 17.0824 0.957627 17.0019 0.910944C17.0979 0.850922 17.1856 0.883755 17.2671 0.874007C17.5484 0.841175 17.7897 0.926847 18.0346 1.0669C19.5629 1.93849 21.0989 2.79674 22.6308 3.66268C22.7527 3.73194 22.8747 3.76323 23.0148 3.7658C24.2711 3.78939 25.5269 3.81761 26.7828 3.8448C26.8487 3.84634 26.9151 3.8448 26.9903 3.82633C26.4102 3.32102 25.8108 2.84598 25.2166 2.36428C24.624 1.88411 24.0298 1.40548 23.404 0.899658C23.487 0.887859 23.5337 0.875546 23.581 0.875033C23.9411 0.873494 24.3007 0.86939 24.6608 0.877598C24.7589 0.87965 24.8638 0.905814 24.952 0.948906C26.0651 1.49269 27.1849 2.02313 28.2846 2.59205C31.1345 4.06744 33.956 5.59516 36.6985 7.25985C38.0457 8.07757 39.3897 8.90453 40.644 9.86128C41.8141 10.7534 42.9148 11.7178 43.8556 12.8505C44.4181 13.5277 44.9059 14.2521 45.2484 15.0652C45.4031 15.432 45.5147 15.8106 45.5894 16.201C45.6029 16.2717 45.6252 16.3446 45.6615 16.4067C46.2422 17.3998 46.5982 18.4725 46.8109 19.5945C47.005 20.6164 47.0538 21.647 46.9671 22.6822C46.866 23.8857 46.6008 25.0548 46.1695 26.185C46.0647 26.4594 46.0388 26.7457 45.9822 27.0278C45.7643 28.1164 45.427 29.1712 45.0466 30.2126C44.8483 30.7548 44.6262 31.2888 44.4218 31.829C44.2422 32.3025 44.003 32.7422 43.7254 33.1669C41.0762 37.2202 38.5075 41.3226 35.9668 45.4425C35.6243 45.9976 35.2299 46.5214 34.8553 47.0564C34.0551 48.1989 33.2497 49.3372 32.4537 50.4818C32.3551 50.6239 32.2544 50.6921 32.0754 50.631C32.0696 50.5495 32.1402 50.4977 32.1828 50.4371C33.2876 48.8586 34.4043 47.2883 35.4967 45.7011C35.9393 45.0583 36.3327 44.3822 36.7442 43.7183C37.6165 42.3107 38.4862 40.9015 39.357 39.4927C39.3949 39.4317 39.4291 39.3686 39.4841 39.2737C39.4022 39.304 39.3529 39.3178 39.3067 39.3394C38.7981 39.5784 38.289 39.8165 37.7841 40.0622C37.7032 40.1017 37.6243 40.1663 37.5719 40.2392C35.7644 42.757 33.9601 45.2774 32.1568 47.7977C32.106 47.8685 32.065 47.9465 32.0261 48.0245C31.6285 48.8258 31.2331 49.6276 30.8367 50.4289C30.8014 50.5007 30.7635 50.571 30.7266 50.6433C30.6431 50.6433 30.5699 50.6433 30.4604 50.6433C30.8585 49.8056 31.2736 48.9976 31.6841 48.1435C31.6016 48.1738 31.5533 48.1876 31.5092 48.2086C30.4594 48.7124 29.4112 49.2187 28.3603 49.7205C28.2576 49.7697 28.1844 49.8374 28.1242 49.9308C27.9716 50.1688 27.8128 50.4028 27.6546 50.6408C27.5653 50.6408 27.4797 50.6408 27.3624 50.6408C27.4138 50.5597 27.4517 50.4992 27.4911 50.4392C27.6094 50.2591 27.72 50.0734 27.8502 49.9015C27.981 49.7287 28.0417 49.5414 28.0635 49.3285C28.1585 48.3805 28.2607 47.433 28.3624 46.4855C28.4496 45.6713 28.5404 44.8577 28.6291 44.0441C28.6343 43.9979 28.6353 43.9512 28.6395 43.881C28.571 43.9076 28.517 43.9246 28.4662 43.9487C26.5352 44.8531 24.6043 45.7591 22.6723 46.6609C22.5659 46.7107 22.5026 46.7835 22.4492 46.881C21.7943 48.0794 21.1368 49.2767 20.4803 50.4741C20.3719 50.6716 20.3714 50.6716 20.1186 50.6249C20.1529 50.5567 20.184 50.4915 20.2183 50.4279C20.8804 49.2182 21.5395 48.0065 22.2089 46.801C22.3065 46.625 22.3303 46.4557 22.3096 46.2628C22.2307 45.5272 22.0875 44.8028 21.9095 44.0862C21.609 42.875 21.2852 41.6694 20.9702 40.4613C20.9552 40.4044 20.9318 40.3495 20.9069 40.2797C20.8415 40.3023 20.7849 40.3182 20.731 40.3413C18.4062 41.3447 16.0819 42.3497 13.755 43.349C13.6299 43.4028 13.565 43.4839 13.5106 43.5968C12.4032 45.8765 11.2937 48.1558 10.1847 50.4346C10.1525 50.5007 10.1193 50.5664 10.0835 50.6382C9.99739 50.6382 9.9128 50.6382 9.80642 50.6382C9.84741 50.549 9.87907 50.4761 9.91384 50.4048C11.029 48.1066 12.1437 45.8073 13.2635 43.5111C13.3294 43.3757 13.3289 43.2756 13.2568 43.1412C12.0762 40.9502 10.9024 38.7556 9.7265 36.562C9.69173 36.4973 9.65437 36.4337 9.60663 36.3496C6.41157 37.4454 3.21909 38.5396 0.0105378 39.64C0.0105378 39.5087 0.0105378 39.4096 0.0105378 39.3004C0.172964 39.2429 0.331238 39.1855 0.49055 39.1311C3.45106 38.1174 6.41157 37.1032 9.37415 36.0951C9.53813 36.0392 9.62375 35.9515 9.68343 35.793C10.5443 33.5122 11.4115 31.2334 12.2776 28.9542C12.2988 28.8982 12.3196 28.8423 12.3461 28.771ZM23.4144 19.7335C23.3672 19.6909 23.3381 19.6632 23.3075 19.637C21.1264 17.7692 18.9443 15.9014 16.7648 14.0315C16.6745 13.954 16.5878 13.9273 16.4705 13.9417C15.77 14.0258 15.0684 14.1043 14.3673 14.1838C13.3694 14.2967 12.3715 14.408 11.3736 14.5214C10.342 14.6383 9.31084 14.7579 8.2792 14.8754C8.09602 14.8964 8.09446 14.8938 8.0571 15.0698C7.59577 17.2423 7.13651 19.4149 6.66844 21.5859C6.63263 21.7511 6.66792 21.8558 6.77689 21.9784C8.67618 24.1089 10.5708 26.243 12.4665 28.3765C12.5064 28.4212 12.549 28.4637 12.5952 28.512C12.6642 28.494 12.7296 28.4786 12.7939 28.4607C15.3029 27.7476 17.8115 27.0309 20.3231 26.3276C20.5556 26.2624 20.678 26.1604 20.7663 25.9341C21.5576 23.9134 22.444 21.9317 23.3225 19.9469C23.3531 19.8787 23.3812 19.8109 23.4144 19.7335ZM13.5977 43.0786C13.6642 43.052 13.7083 43.0361 13.7513 43.0176C16.0954 42.007 18.4389 40.9958 20.7839 39.9883C20.8991 39.9391 20.9661 39.8657 21.0216 39.7595C22.212 37.4828 23.405 35.2077 24.597 32.932C24.6935 32.7478 24.7885 32.5626 24.8887 32.3692C23.4813 30.4342 22.075 28.5007 20.6677 26.5661C20.6007 26.582 20.5483 26.5923 20.4964 26.6072C17.9355 27.3367 15.3751 28.0672 12.8131 28.7921C12.673 28.8316 12.5998 28.8967 12.549 29.0301C11.6798 31.3222 10.8069 33.6132 9.92992 35.9023C9.87492 36.0459 9.87907 36.1577 9.95224 36.2947C11.1318 38.4862 12.3061 40.6803 13.482 42.8734C13.5168 42.9381 13.5541 43.0012 13.5977 43.0786ZM22.61 46.35C22.6905 46.3167 22.7465 46.2962 22.8005 46.271C24.7309 45.3676 26.6613 44.4632 28.5928 43.5619C28.6955 43.5142 28.7708 43.4511 28.831 43.3562C30.3696 40.9451 31.9098 38.5345 33.4526 36.1259C33.5195 36.0213 33.5408 35.9243 33.519 35.8048C33.2902 34.5582 33.0743 33.309 32.8335 32.0645C32.724 31.4992 32.5694 30.942 32.4308 30.3824C32.4044 30.2751 32.3545 30.1736 32.3141 30.0648C32.12 30.1371 31.9508 30.2054 31.7785 30.2628C29.639 30.9744 27.4994 31.6854 25.3578 32.3908C25.212 32.439 25.1206 32.5108 25.0495 32.6473C23.7968 35.042 22.5405 37.4351 21.279 39.8252C21.1996 39.9755 21.1965 40.1022 21.2385 40.2612C21.5628 41.4796 21.8887 42.698 22.1907 43.922C22.3853 44.71 22.54 45.5072 22.61 46.35ZM17.0315 8.69061C17.0175 9.06715 17.0024 9.41548 16.9916 9.76381C16.9583 10.837 16.9272 11.9102 16.8945 12.9839C16.8888 13.165 16.8821 13.3461 16.8706 13.5272C16.8655 13.6088 16.8914 13.6657 16.9552 13.718C17.1125 13.8458 17.2645 13.9802 17.4181 14.112C19.4611 15.8603 21.5047 17.6076 23.5451 19.3585C23.6427 19.4421 23.7252 19.4642 23.8534 19.4313C25.9068 18.9024 27.9618 18.3781 30.0173 17.8574C30.1325 17.8282 30.1896 17.7707 30.2181 17.6635C30.3001 17.3593 30.3961 17.0582 30.4687 16.7519C30.6986 15.7849 30.8559 14.8046 31.0001 13.8227C31.0416 13.539 31.0748 13.2538 31.1112 12.9731C31.0281 12.9167 30.9617 12.87 30.8943 12.8259C29.7931 12.1 28.6919 11.3746 27.5907 10.6487C26.4387 9.88949 25.2867 9.13076 24.1347 8.37152C24.0558 8.31971 23.9826 8.26995 23.8757 8.27662C23.1985 8.32125 22.5208 8.35921 21.843 8.39974C20.5353 8.47771 19.2276 8.55569 17.9199 8.63418C17.6309 8.65008 17.3413 8.67009 17.0315 8.69061ZM25.158 32.1219C25.2083 32.1071 25.2405 32.0983 25.2727 32.0881C26.4776 31.6982 27.6847 31.315 28.886 30.9154C29.9654 30.5568 31.0385 30.1787 32.1153 29.8124C32.2533 29.7657 32.3353 29.6857 32.3971 29.5518C33.2507 27.7035 34.1111 25.8582 34.9694 24.0119C35 23.9457 35.0291 23.8785 35.0639 23.8011C33.4355 21.9148 31.8107 20.0326 30.1854 18.1493C30.1122 18.1657 30.0531 18.177 29.9944 18.1919C28.9509 18.4582 27.9068 18.7249 26.8632 18.9917C25.872 19.2451 24.8814 19.5006 23.8897 19.7504C23.7615 19.7827 23.679 19.8381 23.6292 19.9669C23.5368 20.2044 23.4211 20.4327 23.3204 20.6677C22.5441 22.4837 21.7709 24.3002 20.9915 26.1147C20.9302 26.2568 20.952 26.3558 21.0418 26.4789C22.3734 28.3011 23.6998 30.1269 25.0277 31.9511C25.0661 32.005 25.1082 32.0573 25.158 32.1219ZM28.3276 49.4029C28.4169 49.3639 28.4849 49.3372 28.5502 49.306C29.6058 48.7991 30.6602 48.2907 31.7173 47.787C31.8621 47.7182 31.9736 47.629 32.0676 47.4966C33.7375 45.1547 35.4059 42.8114 37.0913 40.4808C37.398 40.0565 37.6191 39.6133 37.7333 39.1085C38.055 37.689 38.383 36.2706 38.7068 34.8516C38.7493 34.6649 38.7825 34.4761 38.8256 34.2632C38.7384 34.2914 38.6814 34.3078 38.6253 34.3284C37.0555 34.9055 35.4863 35.4836 33.9155 36.0577C33.8055 36.0977 33.7354 36.1623 33.6752 36.2567C33.1874 37.0237 32.6965 37.7886 32.2066 38.5534C31.1579 40.192 30.1081 41.83 29.0614 43.47C29.0048 43.5583 28.9498 43.6604 28.9379 43.7609C28.8481 44.5207 28.7692 45.2815 28.6867 46.0417C28.5938 46.8954 28.5004 47.749 28.4081 48.6031C28.3806 48.8607 28.3562 49.1192 28.3276 49.4029ZM35.3327 23.5369C35.3752 23.5266 35.4017 23.5225 35.4266 23.5143C37.3446 22.8854 39.262 22.2554 41.1805 21.6295C41.2937 21.5926 41.3398 21.5372 41.358 21.4207C41.4851 20.6122 41.6206 19.8053 41.7524 18.9973C41.8629 18.3222 41.9714 17.6466 42.0835 16.9715C42.1032 16.8525 42.0918 16.7622 41.9895 16.6698C40.3985 15.237 38.8111 13.7996 37.2263 12.3601C37.1334 12.2755 37.04 12.2354 36.917 12.2457C36.6331 12.2698 36.3477 12.2806 36.0654 12.3155C35.4126 12.3965 34.7598 12.4807 34.109 12.5776C33.257 12.7048 32.4075 12.8464 31.5564 12.9778C31.4552 12.9932 31.4256 13.0398 31.4116 13.1337C31.3068 13.8437 31.2051 14.5547 31.0852 15.2622C30.9456 16.0824 30.7842 16.8991 30.5149 17.6892C30.4646 17.8359 30.4853 17.9298 30.5865 18.0462C31.737 19.3698 32.8812 20.6984 34.0276 22.0261C34.4588 22.5263 34.8911 23.0264 35.3327 23.5369ZM23.0205 4.11823C23.0496 4.19928 23.0714 4.26136 23.0947 4.3224C23.3059 4.88876 23.5249 5.45254 23.7257 6.02198C23.9312 6.60423 24.1326 7.19008 24.213 7.80568C24.2312 7.94522 24.2898 8.02832 24.4081 8.10579C26.6027 9.54527 28.7941 10.9894 30.9861 12.4319C31.367 12.6828 31.3665 12.6782 31.8081 12.6058C33.4682 12.335 35.1262 12.0487 36.8054 11.9117C36.8552 11.9076 36.9035 11.8923 36.9673 11.8789C36.891 11.6578 36.8246 11.4541 36.7499 11.2531C36.5283 10.6534 36.272 10.0696 35.9175 9.53193C35.6767 9.16668 35.3732 8.87478 34.9871 8.65059C32.6529 7.29422 30.3245 5.92758 27.9955 4.56249C27.8559 4.48092 27.7236 4.38653 27.5949 4.28854C27.5212 4.23211 27.4475 4.20493 27.3541 4.20339C25.9758 4.17671 24.5981 4.14696 23.2198 4.11823C23.1601 4.11669 23.1004 4.11823 23.0205 4.11823ZM41.3341 21.9132C41.2776 21.9281 41.2319 21.9373 41.1878 21.9522C39.2895 22.575 37.3918 23.1983 35.493 23.819C35.3882 23.8534 35.3249 23.9088 35.2787 24.0093C34.8963 24.8394 34.5081 25.6663 34.1215 26.4948C33.6327 27.5424 33.1464 28.5904 32.6529 29.6359C32.5995 29.7498 32.601 29.8422 32.6415 29.9581C32.7313 30.2177 32.8122 30.4814 32.8771 30.7481C33.232 32.2025 33.4853 33.6769 33.7354 35.1512C33.7686 35.3467 33.8013 35.5421 33.8366 35.7509C33.903 35.7304 33.9482 35.7191 33.9912 35.7032C35.5994 35.1133 37.2065 34.5218 38.8158 33.9344C38.9206 33.8964 38.9818 33.8328 39.0347 33.742C40.2864 31.5982 41.5391 29.4554 42.7949 27.3141C42.8582 27.2059 42.8686 27.1135 42.8328 26.9935C42.3507 25.3585 41.8743 23.7226 41.3959 22.0866C41.3793 22.0302 41.3564 21.9758 41.3341 21.9132ZM45.7414 26.6713C45.6657 26.6872 45.6397 26.6918 45.6138 26.6985C44.8852 26.8852 44.1571 27.073 43.428 27.2577C43.3258 27.2833 43.2205 27.2951 43.1089 27.3151C43.1032 27.3233 43.0902 27.3392 43.0798 27.3567C41.7939 29.5508 40.5085 31.7449 39.2247 33.94C39.1884 34.0021 39.1629 34.0739 39.1474 34.1447C39.0519 34.5838 38.9637 35.0245 38.8677 35.4636C38.5656 36.8462 38.274 38.2313 37.876 39.5912C37.8682 39.6179 37.8708 39.6482 37.8671 39.6933C37.9543 39.6543 38.0223 39.6251 38.0893 39.5938C38.5973 39.3548 39.1043 39.1126 39.6144 38.8777C39.7426 38.8187 39.8344 38.7376 39.9107 38.6181C40.9994 36.9175 42.0804 35.2118 43.1909 33.525C43.6828 32.7781 44.0985 32.0019 44.3953 31.1621C44.4332 31.0544 44.4778 30.9492 44.5178 30.8425C44.949 29.6985 45.3491 28.5443 45.6132 27.349C45.6605 27.1335 45.6952 26.917 45.7414 26.6713ZM43.1961 26.993C44.0373 26.7765 44.8494 26.5641 45.6641 26.3604C45.785 26.3302 45.8437 26.2742 45.8847 26.1609C46.5779 24.2556 46.8556 22.3036 46.5764 20.286C46.4243 19.1887 46.1223 18.136 45.6304 17.1387C45.5416 16.9587 45.4394 16.7853 45.3393 16.6001C44.3585 16.6796 43.3875 16.7493 42.4213 16.8448C42.3902 17.0228 42.3621 17.1741 42.3372 17.3265C42.1136 18.6895 41.8925 20.0526 41.6647 21.4151C41.6408 21.5587 41.645 21.6906 41.686 21.8296C42.1022 23.2455 42.5152 24.6619 42.9288 26.0783C43.017 26.3804 43.1053 26.6821 43.1961 26.993ZM35.8272 8.79372C36.1505 9.16206 36.3851 9.53706 36.5854 9.9331C36.8869 10.5287 37.1209 11.1505 37.3109 11.7886C37.3493 11.9169 37.4105 12.0154 37.5096 12.1046C39.0898 13.5298 40.6678 14.9564 42.2433 16.3861C42.3367 16.4708 42.4254 16.5026 42.5515 16.4918C43.2952 16.4267 44.0393 16.3697 44.7835 16.3087C44.9298 16.2969 45.0751 16.2805 45.2199 16.2661C45.223 16.2287 45.2282 16.2081 45.2251 16.1892C45.2189 16.1496 45.209 16.1107 45.1991 16.0712C45.0445 15.4314 44.7653 14.8451 44.4197 14.2869C43.9278 13.4923 43.3248 12.7854 42.6636 12.1257C41.4109 10.8755 40.0088 9.80947 38.5194 8.85067C38.4333 8.79526 38.3472 8.78346 38.2506 8.78346C37.5106 8.78449 36.7706 8.78398 36.0306 8.78449C35.9782 8.78449 35.9253 8.78911 35.8272 8.79372ZM37.7556 8.43308C37.7592 8.41974 37.7628 8.40589 37.7665 8.39256C37.7068 8.35049 37.6487 8.30586 37.5869 8.26687C37.1811 8.01037 36.78 7.74669 36.368 7.49993C33.4827 5.7742 30.5336 4.16132 27.5404 2.62693C26.5238 2.10572 25.4844 1.62761 24.4548 1.13102C24.3946 1.10229 24.3308 1.08126 24.2685 1.05664C24.2805 1.10896 24.3038 1.13307 24.3298 1.15411C25.5254 2.12522 26.721 3.09633 27.9171 4.06642C27.9696 4.10848 28.0261 4.14644 28.0842 4.1803C30.4667 5.57259 32.8491 6.96436 35.2305 8.35767C35.3218 8.41102 35.4126 8.43462 35.5179 8.43411C36.122 8.43103 36.726 8.43257 37.3301 8.43257C37.4722 8.43308 37.6139 8.43308 37.7556 8.43308Z" fill="#111111"/>
<path d="M37.7556 8.43309C37.6139 8.43309 37.4722 8.43309 37.3306 8.43309C36.7265 8.43309 36.1225 8.43156 35.5185 8.43463C35.4131 8.43515 35.3223 8.41155 35.231 8.3582C32.8496 6.96437 30.4666 5.57311 28.0848 4.18083C28.0266 4.14697 27.9695 4.10901 27.9177 4.06694C26.7215 3.09685 25.5259 2.12574 24.3303 1.15463C24.3043 1.1336 24.281 1.10949 24.269 1.05716C24.3313 1.08178 24.3951 1.1023 24.4553 1.13154C25.4849 1.62813 26.5243 2.10625 27.5409 2.62746C30.5341 4.16184 33.4832 5.77472 36.3685 7.50046C36.7805 7.7467 37.1816 8.01038 37.5874 8.26739C37.6492 8.30638 37.7073 8.35101 37.767 8.39308C37.7628 8.40591 37.7592 8.41924 37.7556 8.43309Z" fill="#111111"/>
<path d="M22.2447 19.2831C22.4487 19.4575 22.6215 19.6052 22.7953 19.754C22.7605 20.0362 22.7097 20.3014 22.5919 20.5558C22.3833 21.0063 22.1908 21.4638 21.9904 21.9184C21.9645 21.9774 21.9344 22.0343 21.8861 22.0871C21.8669 21.1478 22.0076 20.2311 22.2447 19.2831Z" fill="#111111"/>
<path d="M32.4074 32.0517C32.5532 32.814 32.6991 33.5768 32.8444 34.3376C32.5719 34.43 30.7972 34.055 29.8574 33.6974C28.8984 33.3332 27.9908 32.8786 27.1133 32.2738C27.3126 32.2081 27.4843 32.1692 27.6395 32.0963C27.8554 31.9953 28.0219 32.0353 28.2129 32.1717C28.6426 32.4785 29.1158 32.714 29.6042 32.9181C29.6727 32.9469 29.7432 32.9782 29.8154 32.9879C29.86 32.9941 29.9275 32.9771 29.9544 32.9453C30.1739 32.6852 30.4427 32.4816 30.7121 32.2784C30.738 32.2589 30.7577 32.2317 30.7889 32.1999C30.6026 31.8855 30.4184 31.5751 30.2253 31.2493C30.4407 31.176 30.6368 31.1088 30.8527 31.0349C30.8968 31.1057 30.9383 31.1719 30.9798 31.2386C31.0572 31.3648 31.1433 31.4864 31.2097 31.6182C31.314 31.8254 31.4874 31.9209 31.7079 31.9522C31.9295 31.9845 32.1506 32.0153 32.4074 32.0517Z" fill="#111111"/>
<path d="M22.6464 18.0206C23.7657 15.2191 25.6556 13.0978 28.323 11.6357C28.5508 11.7855 28.7687 11.9297 29.0079 12.0872C28.9426 12.1251 28.9 12.1528 28.8549 12.1759C28.5897 12.3109 28.325 12.4473 28.0578 12.5781C27.599 12.8028 27.1896 13.1014 26.7848 13.4066C26.6831 13.4836 26.5887 13.5728 26.5025 13.6667C26.4465 13.7283 26.4123 13.8088 26.3489 13.9119C26.4377 13.9176 26.4885 13.9294 26.5368 13.9227C26.9727 13.8596 27.4086 13.7955 27.844 13.7267C28.3333 13.6498 28.8222 13.5692 29.3203 13.5826C29.5274 13.5882 29.7007 13.5256 29.8569 13.3861C30.0173 13.243 30.1968 13.1214 30.3598 12.9962C30.3836 13.0044 30.3909 13.006 30.3966 13.0096C30.7064 13.1989 30.668 13.1265 30.6208 13.462C30.5398 14.0397 30.4433 14.6153 30.3525 15.1914C30.3411 15.2621 30.3234 15.3319 30.3016 15.4371C30.2482 15.3535 30.2124 15.2991 30.1776 15.2437C29.9976 14.9595 29.8144 14.6773 29.64 14.3895C29.5684 14.2721 29.4734 14.2305 29.3385 14.2274C28.7464 14.2131 28.1585 14.2495 27.5767 14.3629C27.2711 14.4224 26.9654 14.4855 26.6624 14.5563C26.5882 14.5737 26.5031 14.6127 26.4564 14.6691C25.8144 15.4422 25.1736 16.2168 24.6868 17.0992C24.4891 17.4578 24.3075 17.8261 24.13 18.1955C24.0226 18.4192 23.924 18.6474 23.8985 18.8998C23.8882 19.0035 23.8316 19.0245 23.746 18.9681C23.7065 18.9424 23.6728 18.9081 23.637 18.8773C23.3547 18.6356 23.0724 18.3945 22.7906 18.1524C22.7444 18.1124 22.7009 18.0703 22.6464 18.0206Z" fill="#111111"/>
<path d="M24.9821 21.4751C26.3541 21.1509 27.7091 20.8482 29.1092 20.7482C29.2503 20.3906 29.38 20.0315 29.5331 19.6827C29.6841 19.339 29.859 19.0055 30.0417 18.63C30.215 18.8306 30.3619 19.0009 30.5051 19.1666C30.3328 19.5498 30.1636 19.9151 30.0043 20.2844C29.927 20.463 29.8658 20.6482 29.8004 20.8313C29.7552 20.9585 29.7703 21.0698 29.8517 21.1894C30.6883 22.4201 31.5196 23.6543 32.3473 24.8907C32.4142 24.9907 32.4921 25.0394 32.6078 25.0482C32.9866 25.0774 33.3654 25.1092 33.7443 25.1395C33.8102 25.1446 33.8755 25.1472 33.9695 25.1528C33.8709 25.3657 33.7816 25.5586 33.6856 25.7653C33.4106 25.7541 33.1402 25.7423 32.8704 25.731C32.7147 25.7243 32.5377 25.6709 32.4085 25.7258C32.2809 25.7802 32.1963 25.9413 32.1008 26.0613C31.407 26.9304 30.7147 27.8009 30.023 28.6715C29.7755 28.9829 29.776 28.9839 29.9483 29.3379C30.051 29.5492 30.1564 29.7596 30.2601 29.9709C30.2627 29.9766 30.2617 29.9843 30.2653 30.012C30.0676 30.0797 29.8658 30.1489 29.6494 30.2228C29.6141 30.1592 29.5798 30.1038 29.5508 30.0458C29.4236 29.7934 29.2929 29.5431 29.1745 29.2871C29.1097 29.1465 29.0152 29.0788 28.8601 29.045C28.4766 28.9613 28.091 28.8772 27.7195 28.7536C26.829 28.4565 26.0168 28.0205 25.337 27.3654C25.2893 27.3192 25.2338 27.2807 25.1611 27.2223C24.7621 27.4321 24.363 27.6419 23.9691 27.8492C24.0454 28.1539 24.5633 28.9234 25.171 29.6544C25.6333 30.211 26.1549 30.7076 26.7791 31.1606C26.514 31.2457 26.2893 31.3268 26.0584 31.3842C26.007 31.3971 25.9234 31.3386 25.8731 31.2934C25.3059 30.7897 24.7942 30.2346 24.335 29.6329C23.2177 28.1688 22.472 26.5384 22.1015 24.7414C22.0859 24.667 22.0875 24.5777 22.1145 24.509C22.2328 24.2094 22.3636 23.9144 22.4907 23.6179C22.5 23.5964 22.5187 23.5789 22.5509 23.5358C22.6012 23.8324 22.6417 24.1012 22.6926 24.3679C22.843 25.1533 23.0402 25.9264 23.348 26.6677C23.43 26.8652 23.5078 27.0668 23.6645 27.2433C24.0319 27.0566 24.3978 26.8709 24.7797 26.6769C24.7413 26.4964 24.7102 26.3261 24.6676 26.1583C24.5332 25.6314 24.4004 25.1051 24.348 24.5618C24.3007 24.0724 24.3023 23.583 24.3433 23.0941C24.3703 22.7735 24.4081 22.4534 24.4533 22.1343C24.4725 21.9989 24.4408 21.8845 24.3796 21.7685C24.2135 21.4541 24.049 21.1386 23.8892 20.8205C23.8539 20.7508 23.8067 20.661 23.8249 20.5969C23.8664 20.4501 23.9266 20.3003 24.0153 20.1777C24.0599 20.1167 24.185 20.1131 24.294 20.0767C24.527 20.5512 24.7538 21.0114 24.9821 21.4751Z" fill="#111111"/>
<path d="M31.8169 13.3599C32.3758 13.2707 32.9103 13.1804 33.4464 13.1014C34.2518 12.9834 35.0577 12.8711 35.8641 12.7623C36.1666 12.7218 36.4712 12.6987 36.7748 12.6659C36.8667 12.6561 36.9414 12.671 37.0151 12.7382C37.5179 13.1994 38.0249 13.6554 38.5304 14.1135C38.5501 14.1315 38.5656 14.153 38.5895 14.1797C38.5532 14.2377 38.5184 14.2941 38.4826 14.35C38.081 14.9738 37.7291 15.6248 37.4437 16.3082C37.1676 16.9705 37.2195 16.8827 37.5081 17.3891C37.7981 17.8974 38.1111 18.3925 38.412 18.8947C38.7509 19.4611 39.0701 20.0377 39.3119 20.6517C39.3498 20.7472 39.4063 20.7872 39.5023 20.8031C39.9502 20.8775 40.3975 20.956 40.8448 21.0329C40.8842 21.0396 40.9237 21.0462 40.9797 21.056C40.9673 21.1268 40.9569 21.1899 40.9444 21.2602C40.0202 21.5634 39.1038 21.864 38.1484 22.1774C38.1925 22.081 38.2216 22.023 38.246 21.9635C38.3617 21.6778 38.4805 21.393 38.59 21.1047C38.6528 20.9401 38.6336 20.7795 38.5506 20.6194C38.2382 20.0167 37.9455 19.4031 37.6191 18.808C37.3514 18.3202 37.0452 17.8528 36.7577 17.3752C36.7022 17.2829 36.6352 17.2275 36.5174 17.2218C35.67 17.1808 34.8236 17.1141 33.9762 17.0946C33.2227 17.0772 32.4708 17.1428 31.7225 17.2393C31.6135 17.2531 31.5564 17.2977 31.5045 17.3865C31.3873 17.5886 31.2591 17.7851 31.1205 18.0067C31.0489 17.9257 30.9934 17.8631 30.9358 17.7974C31.3758 16.3492 31.5948 14.8636 31.8169 13.3599Z" fill="#111111"/>
<path d="M32.0126 12.0841C32.6068 11.863 33.201 11.6419 33.8024 11.4177C33.8024 11.2397 33.8024 11.055 33.8024 10.8493C33.5808 10.8493 33.3727 10.8375 33.1667 10.8514C32.6109 10.8888 32.0593 10.9606 31.5248 11.1202C31.1813 11.2228 30.8424 11.3397 30.5056 11.4624C30.3972 11.5019 30.3183 11.4962 30.2254 11.4295C30.0464 11.3013 29.859 11.1843 29.6478 11.0443C29.7267 11.0099 29.7729 10.9873 29.8206 10.9699C31.4459 10.3779 33.1221 10.1198 34.8532 10.2317C35.1573 10.2512 35.4604 10.2912 35.7645 10.3143C35.8584 10.3214 35.9119 10.3579 35.9482 10.442C36.0162 10.601 36.0909 10.757 36.1786 10.9494C35.5678 10.8683 34.9928 10.7985 34.3914 10.8426C34.3914 11.0402 34.3914 11.2248 34.3914 11.4295C34.5881 11.4998 34.8003 11.5752 35.0131 11.6506C35.0105 11.6604 35.0079 11.6701 35.0058 11.6794C34.011 11.8312 33.0167 11.9836 32.0219 12.1354C32.0188 12.1185 32.0157 12.101 32.0126 12.0841Z" fill="#111111"/>
<path d="M33.6113 32.0666C33.8288 32.0563 34.0239 32.0465 34.2195 32.0383C34.8848 32.0111 35.5469 31.9537 36.2024 31.8326C36.2625 31.8213 36.3212 31.8049 36.3814 31.7957C36.7498 31.7377 37.0134 31.5571 37.2272 31.2396C37.6782 30.5691 38.1426 29.9084 38.5121 29.1881C38.5427 29.1281 38.5749 29.0691 38.6055 29.0096C38.6714 28.8798 38.6678 28.7515 38.5941 28.6253C38.5635 28.573 38.5365 28.5181 38.5012 28.4694C37.8884 27.6158 37.2724 26.7642 36.6621 25.909C36.5708 25.7807 36.4686 25.73 36.3061 25.7418C35.9206 25.7695 35.5329 25.7772 35.1463 25.792C35.0815 25.7946 35.0161 25.7925 34.918 25.7925C35.0192 25.5766 35.1012 25.3868 35.1987 25.2046C35.2205 25.1641 35.2937 25.1344 35.3461 25.1297C35.549 25.1118 35.7524 25.0985 35.9564 25.0979C36.1826 25.0974 36.3362 24.9948 36.4634 24.8163C36.7213 24.4546 36.9885 24.0996 37.2563 23.7452C37.29 23.7005 37.345 23.6605 37.3985 23.6426C38.6066 23.2419 39.8162 22.8448 41.0419 22.4416C41.0658 22.5016 41.0912 22.5535 41.1073 22.6078C41.5297 24.0509 41.9495 25.4945 42.3766 26.936C42.4155 27.0663 42.4005 27.1669 42.3289 27.2736C42.2692 27.3628 42.2106 27.4552 42.1664 27.5527C42.0673 27.7722 41.8987 27.9123 41.6869 28.0215C41.0113 28.3709 40.3185 28.6746 39.5666 28.8228C39.4177 28.8521 39.3507 28.9413 39.2967 29.0645C39.0653 29.5949 38.8043 30.112 38.4867 30.5968C38.2143 31.0128 37.9159 31.412 37.6294 31.8193C37.5682 31.9065 37.5095 31.9952 37.439 32.0994C37.7213 32.3774 37.9953 32.6468 38.2682 32.9166C38.345 32.9925 38.4301 32.9715 38.5137 32.9381C38.715 32.8586 38.9143 32.7755 39.1405 32.6827C39.1177 32.737 39.1053 32.7765 39.085 32.8119C38.9677 33.0161 38.8458 33.2177 38.7306 33.4234C38.6854 33.5035 38.6284 33.5558 38.5396 33.5902C37.7041 33.9134 36.8583 34.197 35.9626 34.3125C35.3363 34.3935 34.7094 34.4551 34.0535 34.4469C33.9076 33.661 33.7623 32.8791 33.6113 32.0666Z" fill="#111111"/>
<path d="M40.4706 32.6524C40.5495 32.5159 40.6294 32.3867 40.6999 32.2528C40.9553 31.7685 41.2739 31.3514 41.7181 31.001C42.7087 30.2187 43.4425 29.2061 44.141 28.1713C44.2344 28.0328 44.3045 27.8784 44.3813 27.7291C44.402 27.6886 44.4093 27.6414 44.4238 27.5916C44.3807 27.5578 44.3418 27.5275 44.277 27.4767C44.5893 27.3957 44.8753 27.3213 45.1897 27.2397C45.1534 27.4824 45.1119 27.7004 45.0045 27.9041C44.4326 28.9885 43.7134 29.9668 42.8447 30.8374C42.1846 31.4992 41.4576 32.0794 40.6626 32.5754C40.6169 32.6042 40.5707 32.6329 40.5235 32.6591C40.5157 32.6637 40.5007 32.6565 40.4706 32.6524Z" fill="#111111"/>
<path d="M43.5028 17.1705C44.0633 17.1249 44.5765 17.0828 45.098 17.0402C45.1437 17.1249 45.1878 17.1998 45.2262 17.2772C45.7254 18.2796 46.029 19.339 46.1691 20.4455C46.401 22.2769 46.1686 24.0565 45.565 25.7961C45.5168 25.9357 45.4493 26.0147 45.2791 26.0049C45.2843 25.9736 45.2853 25.9428 45.2952 25.9151C45.5007 25.3498 45.6081 24.7629 45.6647 24.1674C45.7244 23.5333 45.784 22.8982 45.8115 22.2621C45.8453 21.4885 45.7731 20.7205 45.5951 19.9648C45.5858 19.9259 45.5723 19.8874 45.5645 19.8484C45.523 19.6324 45.3886 19.5257 45.1701 19.5134C45.0279 19.5052 44.8863 19.4924 44.7306 19.4806C44.7 19.5242 44.6621 19.5709 44.632 19.6216C44.5298 19.7956 44.4244 19.9679 44.331 20.147C44.0767 20.6338 43.7695 21.0816 43.3518 21.4469C43.2423 21.5423 43.2127 21.6331 43.2568 21.7788C43.5288 22.6786 43.6377 23.6056 43.6424 24.5398C43.645 25.0405 43.5744 25.5422 43.536 26.0429C43.5308 26.1096 43.5106 26.1763 43.5142 26.2424C43.5179 26.3076 43.5433 26.3712 43.564 26.4564C43.5448 26.4784 43.5054 26.4933 43.4769 26.4307C43.4545 26.3825 43.4437 26.3291 43.4286 26.2773C42.9974 24.803 42.5698 23.3271 42.1323 21.8542C42.068 21.6372 42.0742 21.4346 42.1442 21.2058C42.2402 21.2181 42.3388 21.2273 42.4354 21.2443C42.548 21.2643 42.6326 21.2273 42.7031 21.1417C43.0067 20.7718 43.3186 20.4081 43.6128 20.0315C43.7861 19.8094 43.9397 19.5709 44.0892 19.3318C44.2252 19.1148 44.2423 18.8906 44.139 18.6423C43.9392 18.1606 43.8085 17.6507 43.5028 17.1705Z" fill="#111111"/>
<path d="M37.3658 10.6287C40.4338 11.5183 42.7876 13.2645 44.5219 15.9003C44.3418 15.9183 44.2033 15.9332 44.0647 15.945C43.7067 15.9757 43.3481 16.0014 42.9905 16.0378C42.8733 16.0496 42.81 16.0086 42.743 15.9157C42.4955 15.572 42.2365 15.236 41.9802 14.8984C41.9356 14.84 41.8785 14.7907 41.8307 14.7338C41.483 14.3167 41.0103 14.1628 40.4893 14.1064C40.4249 14.0992 40.3466 14.0915 40.302 14.053C40.0622 13.8478 39.8308 13.6323 39.6035 13.4005C40.1328 13.3774 40.647 13.479 41.1556 13.5456C41.1738 13.5241 41.1857 13.5154 41.1899 13.5041C41.2703 13.2933 41.2288 13.144 41.0321 12.9916C40.1458 12.3057 39.1593 11.8132 38.1022 11.448C37.9808 11.4059 37.8593 11.3608 37.7348 11.3305C37.6289 11.3049 37.5781 11.2469 37.5485 11.1458C37.5013 10.9858 37.4385 10.8308 37.3658 10.6287Z" fill="#111111"/>
</svg>
